<svg width="460" height="56" viewBox="0 0 460 56" fill="none" xmlns="http://www.w3.org/2000/svg">
<rect x="0.5" y="0.5" width="459" height="55" rx="7.5" fill="#F7F7F8"/>
<rect x="0.5" y="0.5" width="459" height="55" rx="7.5" stroke="#F1F1F3"/>
<g clip-path="url(#clip0_152_4475)">
<path d="M171.764 28.2764C171.764 27.4607 171.698 26.6406 171.557 25.8381H160.238V30.4591H166.72C166.451 31.9494 165.587 33.2678 164.321 34.1056V37.1039H168.188C170.459 35.0139 171.764 31.9274 171.764 28.2764Z" fill="#4285F4"/>
<path d="M160.239 40.0008C163.476 40.0008 166.205 38.9382 168.194 37.1039L164.327 34.1055C163.251 34.8375 161.862 35.252 160.244 35.252C157.113 35.252 154.458 33.1399 153.506 30.3003H149.516V33.3912C151.553 37.4434 155.702 40.0008 160.239 40.0008Z" fill="#34A853"/>
<path d="M153.501 30.3003C152.998 28.8099 152.998 27.1961 153.501 25.7057V22.6148H149.515C147.813 26.0056 147.813 30.0004 149.515 33.3912L153.501 30.3003Z" fill="#FBBC04"/>
<path d="M160.239 20.7497C161.95 20.7232 163.603 21.367 164.842 22.5487L168.269 19.1226C166.099 17.0855 163.22 15.9655 160.239 16.0008C155.702 16.0008 151.553 18.5582 149.516 22.6148L153.502 25.7058C154.45 22.8617 157.108 20.7497 160.239 20.7497Z" fill="#EA4335"/>
</g>
<path d="M187.064 33.5V23.14H188.702V32.072H193.938V33.5H187.064ZM198.849 33.64C198.037 33.64 197.351 33.458 196.791 33.094C196.24 32.73 195.82 32.254 195.531 31.666C195.251 31.078 195.111 30.4527 195.111 29.79C195.111 29.1273 195.251 28.502 195.531 27.914C195.82 27.326 196.24 26.85 196.791 26.486C197.351 26.122 198.037 25.94 198.849 25.94C199.651 25.94 200.328 26.122 200.879 26.486C201.439 26.85 201.859 27.326 202.139 27.914C202.428 28.502 202.573 29.1273 202.573 29.79C202.573 30.4527 202.428 31.078 202.139 31.666C201.859 32.254 201.439 32.73 200.879 33.094C200.328 33.458 199.651 33.64 198.849 33.64ZM198.849 32.282C199.306 32.282 199.689 32.1653 199.997 31.932C200.314 31.6987 200.552 31.3907 200.711 31.008C200.879 30.6253 200.963 30.2193 200.963 29.79C200.963 29.3513 200.879 28.9453 200.711 28.572C200.552 28.1893 200.314 27.8813 199.997 27.648C199.689 27.4147 199.306 27.298 198.849 27.298C198.391 27.298 198.004 27.4147 197.687 27.648C197.369 27.8813 197.131 28.1893 196.973 28.572C196.814 28.9453 196.735 29.3513 196.735 29.79C196.735 30.2193 196.814 30.6253 196.973 31.008C197.131 31.3907 197.369 31.6987 197.687 31.932C198.004 32.1653 198.391 32.282 198.849 32.282ZM207.887 36.454C207.243 36.454 206.711 36.37 206.291 36.202C205.871 36.034 205.535 35.824 205.283 35.572C205.031 35.3293 204.844 35.082 204.723 34.83C204.601 34.5873 204.522 34.382 204.485 34.214C204.447 34.046 204.429 33.962 204.429 33.962H206.011C206.011 33.962 206.029 34.018 206.067 34.13C206.104 34.2513 206.183 34.3867 206.305 34.536C206.435 34.6947 206.627 34.83 206.879 34.942C207.131 35.0633 207.462 35.124 207.873 35.124C208.358 35.124 208.745 35.026 209.035 34.83C209.333 34.6433 209.543 34.3913 209.665 34.074C209.795 33.766 209.861 33.43 209.861 33.066V32.226H209.791C209.688 32.3847 209.539 32.562 209.343 32.758C209.156 32.9447 208.904 33.108 208.587 33.248C208.269 33.388 207.887 33.458 207.439 33.458C206.879 33.458 206.389 33.3507 205.969 33.136C205.558 32.9213 205.213 32.6367 204.933 32.282C204.662 31.918 204.457 31.512 204.317 31.064C204.177 30.616 204.107 30.1587 204.107 29.692C204.107 29.2253 204.177 28.7727 204.317 28.334C204.457 27.886 204.662 27.4847 204.933 27.13C205.213 26.766 205.558 26.4767 205.969 26.262C206.389 26.0473 206.879 25.94 207.439 25.94C207.887 25.94 208.269 26.01 208.587 26.15C208.904 26.2807 209.161 26.444 209.357 26.64C209.553 26.8267 209.697 27.004 209.791 27.172H209.861V26.08H211.457V33.052C211.457 33.7147 211.321 34.3027 211.051 34.816C210.78 35.3293 210.379 35.7307 209.847 36.02C209.315 36.3093 208.661 36.454 207.887 36.454ZM207.803 32.142C208.26 32.142 208.643 32.0253 208.951 31.792C209.259 31.5493 209.487 31.2413 209.637 30.868C209.786 30.4947 209.861 30.1027 209.861 29.692C209.861 29.2813 209.786 28.8893 209.637 28.516C209.487 28.1427 209.259 27.8393 208.951 27.606C208.643 27.3727 208.26 27.256 207.803 27.256C207.336 27.256 206.949 27.3727 206.641 27.606C206.333 27.8393 206.104 28.1427 205.955 28.516C205.805 28.8893 205.731 29.2813 205.731 29.692C205.731 30.1027 205.805 30.4947 205.955 30.868C206.104 31.2413 206.333 31.5493 206.641 31.792C206.949 32.0253 207.336 32.142 207.803 32.142ZM214.305 24.806C214.015 24.806 213.777 24.708 213.591 24.512C213.404 24.316 213.311 24.0873 213.311 23.826C213.311 23.5553 213.404 23.3267 213.591 23.14C213.777 22.944 214.015 22.846 214.305 22.846C214.594 22.846 214.832 22.944 215.019 23.14C215.215 23.3267 215.313 23.5553 215.313 23.826C215.313 24.0967 215.215 24.33 215.019 24.526C214.832 24.7127 214.594 24.806 214.305 24.806ZM213.521 33.5V26.08H215.117V33.5H213.521ZM217.166 33.5V26.08H218.762V27.158H218.846C218.912 27.0273 219.024 26.8687 219.182 26.682C219.341 26.486 219.56 26.3133 219.84 26.164C220.13 26.0147 220.494 25.94 220.932 25.94C221.483 25.94 221.945 26.066 222.318 26.318C222.692 26.57 222.972 26.906 223.158 27.326C223.354 27.746 223.452 28.208 223.452 28.712V33.5H221.856V28.88C221.856 28.432 221.73 28.054 221.478 27.746C221.236 27.438 220.872 27.284 220.386 27.284C220.004 27.284 219.691 27.382 219.448 27.578C219.215 27.7647 219.042 28.012 218.93 28.32C218.818 28.6187 218.762 28.9407 218.762 29.286V33.5H217.166ZM230.404 33.5L228.038 26.08H229.648L231.272 31.442L232.98 26.08H234.464L236.172 31.442L237.796 26.08H239.42L237.04 33.5H235.346L233.722 28.404L232.112 33.5H230.404ZM241.772 24.806C241.482 24.806 241.244 24.708 241.058 24.512C240.871 24.316 240.778 24.0873 240.778 23.826C240.778 23.5553 240.871 23.3267 241.058 23.14C241.244 22.944 241.482 22.846 241.772 22.846C242.061 22.846 242.299 22.944 242.486 23.14C242.682 23.3267 242.78 23.5553 242.78 23.826C242.78 24.0967 242.682 24.33 242.486 24.526C242.299 24.7127 242.061 24.806 241.772 24.806ZM240.988 33.5V26.08H242.584V33.5H240.988ZM247.881 33.64C247.293 33.64 246.822 33.5327 246.467 33.318C246.112 33.1033 245.856 32.8187 245.697 32.464C245.548 32.1 245.473 31.708 245.473 31.288V27.368H244.171V26.08H245.473V24.232H247.069V26.08H248.805V27.368H247.069V31.26C247.069 31.96 247.456 32.31 248.231 32.31C248.427 32.31 248.609 32.296 248.777 32.268C248.945 32.24 249.029 32.226 249.029 32.226V33.528C249.029 33.528 248.912 33.5467 248.679 33.584C248.455 33.6213 248.189 33.64 247.881 33.64ZM250.802 33.5V22.86H252.398V27.158H252.482C252.548 27.0273 252.66 26.8687 252.818 26.682C252.977 26.486 253.196 26.3133 253.476 26.164C253.766 26.0147 254.13 25.94 254.568 25.94C255.119 25.94 255.581 26.066 255.954 26.318C256.328 26.57 256.608 26.906 256.794 27.326C256.99 27.746 257.088 28.208 257.088 28.712V33.5H255.492V28.88C255.492 28.432 255.366 28.054 255.114 27.746C254.872 27.438 254.508 27.284 254.022 27.284C253.64 27.284 253.327 27.382 253.084 27.578C252.851 27.7647 252.678 28.012 252.566 28.32C252.454 28.6187 252.398 28.9407 252.398 29.286V33.5H250.802ZM266.99 33.64C266.132 33.64 265.385 33.4907 264.75 33.192C264.125 32.8933 263.602 32.492 263.182 31.988C262.762 31.4747 262.45 30.9053 262.244 30.28C262.039 29.6453 261.936 28.9967 261.936 28.334C261.936 27.6713 262.039 27.0227 262.244 26.388C262.45 25.7533 262.762 25.184 263.182 24.68C263.612 24.1667 264.144 23.7607 264.778 23.462C265.422 23.154 266.174 23 267.032 23C267.704 23 268.278 23.084 268.754 23.252C269.23 23.42 269.632 23.6393 269.958 23.91C270.285 24.1713 270.546 24.4513 270.742 24.75C270.938 25.0487 271.088 25.3333 271.19 25.604C271.293 25.8747 271.363 26.094 271.4 26.262C271.438 26.43 271.456 26.514 271.456 26.514H269.818C269.818 26.514 269.8 26.444 269.762 26.304C269.725 26.164 269.65 25.996 269.538 25.8C269.436 25.5947 269.282 25.3893 269.076 25.184C268.871 24.9787 268.6 24.8107 268.264 24.68C267.938 24.54 267.532 24.47 267.046 24.47C266.468 24.47 265.959 24.582 265.52 24.806C265.091 25.0207 264.732 25.31 264.442 25.674C264.162 26.038 263.952 26.4487 263.812 26.906C263.672 27.3633 263.602 27.83 263.602 28.306C263.602 28.7913 263.672 29.2673 263.812 29.734C263.962 30.1913 264.176 30.6067 264.456 30.98C264.746 31.344 265.1 31.6333 265.52 31.848C265.95 32.0627 266.449 32.17 267.018 32.17C267.905 32.17 268.61 31.918 269.132 31.414C269.655 30.91 269.944 30.2287 270 29.37H267.046V28.054H271.582V28.796C271.582 29.86 271.377 30.7513 270.966 31.47C270.565 32.1887 270.014 32.73 269.314 33.094C268.624 33.458 267.849 33.64 266.99 33.64ZM276.765 33.64C275.953 33.64 275.267 33.458 274.707 33.094C274.156 32.73 273.736 32.254 273.447 31.666C273.167 31.078 273.027 30.4527 273.027 29.79C273.027 29.1273 273.167 28.502 273.447 27.914C273.736 27.326 274.156 26.85 274.707 26.486C275.267 26.122 275.953 25.94 276.765 25.94C277.567 25.94 278.244 26.122 278.795 26.486C279.355 26.85 279.775 27.326 280.055 27.914C280.344 28.502 280.489 29.1273 280.489 29.79C280.489 30.4527 280.344 31.078 280.055 31.666C279.775 32.254 279.355 32.73 278.795 33.094C278.244 33.458 277.567 33.64 276.765 33.64ZM276.765 32.282C277.222 32.282 277.605 32.1653 277.913 31.932C278.23 31.6987 278.468 31.3907 278.627 31.008C278.795 30.6253 278.879 30.2193 278.879 29.79C278.879 29.3513 278.795 28.9453 278.627 28.572C278.468 28.1893 278.23 27.8813 277.913 27.648C277.605 27.4147 277.222 27.298 276.765 27.298C276.307 27.298 275.92 27.4147 275.603 27.648C275.285 27.8813 275.047 28.1893 274.889 28.572C274.73 28.9453 274.651 29.3513 274.651 29.79C274.651 30.2193 274.73 30.6253 274.889 31.008C275.047 31.3907 275.285 31.6987 275.603 31.932C275.92 32.1653 276.307 32.282 276.765 32.282ZM285.761 33.64C284.949 33.64 284.263 33.458 283.703 33.094C283.152 32.73 282.732 32.254 282.443 31.666C282.163 31.078 282.023 30.4527 282.023 29.79C282.023 29.1273 282.163 28.502 282.443 27.914C282.732 27.326 283.152 26.85 283.703 26.486C284.263 26.122 284.949 25.94 285.761 25.94C286.563 25.94 287.24 26.122 287.791 26.486C288.351 26.85 288.771 27.326 289.051 27.914C289.34 28.502 289.485 29.1273 289.485 29.79C289.485 30.4527 289.34 31.078 289.051 31.666C288.771 32.254 288.351 32.73 287.791 33.094C287.24 33.458 286.563 33.64 285.761 33.64ZM285.761 32.282C286.218 32.282 286.601 32.1653 286.909 31.932C287.226 31.6987 287.464 31.3907 287.623 31.008C287.791 30.6253 287.875 30.2193 287.875 29.79C287.875 29.3513 287.791 28.9453 287.623 28.572C287.464 28.1893 287.226 27.8813 286.909 27.648C286.601 27.4147 286.218 27.298 285.761 27.298C285.303 27.298 284.916 27.4147 284.599 27.648C284.281 27.8813 284.043 28.1893 283.885 28.572C283.726 28.9453 283.647 29.3513 283.647 29.79C283.647 30.2193 283.726 30.6253 283.885 31.008C284.043 31.3907 284.281 31.6987 284.599 31.932C284.916 32.1653 285.303 32.282 285.761 32.282ZM294.799 36.454C294.155 36.454 293.623 36.37 293.203 36.202C292.783 36.034 292.447 35.824 292.195 35.572C291.943 35.3293 291.756 35.082 291.635 34.83C291.513 34.5873 291.434 34.382 291.397 34.214C291.359 34.046 291.341 33.962 291.341 33.962H292.923C292.923 33.962 292.941 34.018 292.979 34.13C293.016 34.2513 293.095 34.3867 293.217 34.536C293.347 34.6947 293.539 34.83 293.791 34.942C294.043 35.0633 294.374 35.124 294.785 35.124C295.27 35.124 295.657 35.026 295.947 34.83C296.245 34.6433 296.455 34.3913 296.577 34.074C296.707 33.766 296.773 33.43 296.773 33.066V32.226H296.703C296.6 32.3847 296.451 32.562 296.255 32.758C296.068 32.9447 295.816 33.108 295.499 33.248C295.181 33.388 294.799 33.458 294.351 33.458C293.791 33.458 293.301 33.3507 292.881 33.136C292.47 32.9213 292.125 32.6367 291.845 32.282C291.574 31.918 291.369 31.512 291.229 31.064C291.089 30.616 291.019 30.1587 291.019 29.692C291.019 29.2253 291.089 28.7727 291.229 28.334C291.369 27.886 291.574 27.4847 291.845 27.13C292.125 26.766 292.47 26.4767 292.881 26.262C293.301 26.0473 293.791 25.94 294.351 25.94C294.799 25.94 295.181 26.01 295.499 26.15C295.816 26.2807 296.073 26.444 296.269 26.64C296.465 26.8267 296.609 27.004 296.703 27.172H296.773V26.08H298.369V33.052C298.369 33.7147 298.233 34.3027 297.963 34.816C297.692 35.3293 297.291 35.7307 296.759 36.02C296.227 36.3093 295.573 36.454 294.799 36.454ZM294.715 32.142C295.172 32.142 295.555 32.0253 295.863 31.792C296.171 31.5493 296.399 31.2413 296.549 30.868C296.698 30.4947 296.773 30.1027 296.773 29.692C296.773 29.2813 296.698 28.8893 296.549 28.516C296.399 28.1427 296.171 27.8393 295.863 27.606C295.555 27.3727 295.172 27.256 294.715 27.256C294.248 27.256 293.861 27.3727 293.553 27.606C293.245 27.8393 293.016 28.1427 292.867 28.516C292.717 28.8893 292.643 29.2813 292.643 29.692C292.643 30.1027 292.717 30.4947 292.867 30.868C293.016 31.2413 293.245 31.5493 293.553 31.792C293.861 32.0253 294.248 32.142 294.715 32.142ZM300.363 33.5L300.377 22.86H301.959V33.5H300.363ZM307.4 33.64C306.775 33.64 306.234 33.5327 305.776 33.318C305.328 33.094 304.955 32.8 304.656 32.436C304.367 32.0627 304.148 31.6473 303.998 31.19C303.858 30.7327 303.788 30.266 303.788 29.79C303.788 29.3233 303.858 28.8613 303.998 28.404C304.138 27.9467 304.353 27.5313 304.642 27.158C304.932 26.7847 305.3 26.4907 305.748 26.276C306.196 26.052 306.724 25.94 307.33 25.94C307.984 25.94 308.558 26.0893 309.052 26.388C309.556 26.6773 309.948 27.1113 310.228 27.69C310.518 28.2593 310.662 28.9687 310.662 29.818V30.252H305.398C305.436 30.8213 305.627 31.3113 305.972 31.722C306.318 32.1327 306.794 32.338 307.4 32.338C307.746 32.338 308.03 32.282 308.254 32.17C308.478 32.0487 308.651 31.9133 308.772 31.764C308.894 31.6147 308.978 31.484 309.024 31.372C309.08 31.26 309.108 31.204 309.108 31.204H310.592C310.592 31.204 310.569 31.288 310.522 31.456C310.476 31.6147 310.387 31.8153 310.256 32.058C310.135 32.3007 309.958 32.5433 309.724 32.786C309.491 33.0287 309.183 33.234 308.8 33.402C308.418 33.5607 307.951 33.64 307.4 33.64ZM305.412 29.132H309.122C309.085 28.4787 308.889 27.998 308.534 27.69C308.189 27.382 307.783 27.228 307.316 27.228C306.794 27.228 306.36 27.4007 306.014 27.746C305.669 28.082 305.468 28.544 305.412 29.132Z" fill="#262626"/>
<defs>
<clipPath id="clip0_152_4475">
<rect width="24" height="24" fill="white" transform="translate(148 16)"/>
</clipPath>
</defs>
</svg>
