<svg width="54" height="55" viewBox="0 0 54 55" fill="none" xmlns="http://www.w3.org/2000/svg">
<rect x="0.5" y="1" width="53" height="53" rx="5.5" fill="white"/>
<rect x="0.5" y="1" width="53" height="53" rx="5.5" stroke="#F1F1F3"/>
<path fill-rule="evenodd" clip-rule="evenodd" d="M34.5 27.5C34.5 28.1213 33.9963 28.625 33.375 28.625H23.4181L26.6547 31.5641C27.1026 31.9947 27.1166 32.7069 26.6859 33.1547C26.2553 33.6026 25.5431 33.6166 25.0953 33.1859L19.8453 28.3109C19.6247 28.0988 19.5 27.806 19.5 27.5C19.5 27.194 19.6247 26.9012 19.8453 26.6891L25.0953 21.8141C25.5431 21.3834 26.2553 21.3974 26.6859 21.8453C27.1166 22.2931 27.1026 23.0053 26.6547 23.4359L23.4181 26.375L33.375 26.375C33.9963 26.375 34.5 26.8787 34.5 27.5Z" fill="#262626"/>
</svg>
