<svg width="44" height="45" viewBox="0 0 44 45" fill="none" xmlns="http://www.w3.org/2000/svg">
<rect x="0.5" y="1.25" width="43" height="43" rx="5.5" fill="#F7F7F8"/>
<rect x="0.5" y="1.25" width="43" height="43" rx="5.5" stroke="#F1F1F3"/>
<path fill-rule="evenodd" clip-rule="evenodd" d="M21.6165 31.3759C21.6416 31.3905 21.6614 31.4017 21.6754 31.4096L21.6987 31.4226C21.8844 31.5245 22.1148 31.5238 22.3007 31.4229L22.3246 31.4096C22.3386 31.4017 22.3584 31.3905 22.3835 31.3759C22.4339 31.3467 22.5058 31.3042 22.5963 31.2485C22.7771 31.1372 23.0323 30.973 23.3372 30.7576C23.9459 30.3276 24.7581 29.6895 25.5721 28.8561C27.1922 27.1974 28.875 24.7051 28.875 21.5C28.875 17.703 25.797 14.625 22 14.625C18.203 14.625 15.125 17.703 15.125 21.5C15.125 24.7051 16.8078 27.1974 18.4279 28.8561C19.2419 29.6895 20.0541 30.3276 20.6628 30.7576C20.9677 30.973 21.2229 31.1372 21.4037 31.2485C21.4942 31.3042 21.5661 31.3467 21.6165 31.3759ZM22 24C23.3807 24 24.5 22.8807 24.5 21.5C24.5 20.1193 23.3807 19 22 19C20.6193 19 19.5 20.1193 19.5 21.5C19.5 22.8807 20.6193 24 22 24Z" fill="#262626"/>
</svg>
