<svg width="44" height="45" viewBox="0 0 44 45" fill="none" xmlns="http://www.w3.org/2000/svg">
<rect x="0.5" y="0.75" width="43" height="43" rx="5.5" fill="#F7F7F8"/>
<rect x="0.5" y="0.75" width="43" height="43" rx="5.5" stroke="#F1F1F3"/>
<path fill-rule="evenodd" clip-rule="evenodd" d="M13.25 16C13.25 14.6193 14.3693 13.5 15.75 13.5H16.893C17.61 13.5 18.235 13.988 18.4089 14.6835L19.3304 18.3695C19.4828 18.9794 19.2549 19.6213 18.752 19.9985L17.674 20.807C17.5621 20.891 17.5377 21.0139 17.5692 21.0997C18.5154 23.6829 20.5671 25.7346 23.1503 26.6808C23.2361 26.7123 23.359 26.6879 23.443 26.576L24.2515 25.498C24.6287 24.9951 25.2706 24.7672 25.8805 24.9196L29.5665 25.8411C30.262 26.015 30.75 26.64 30.75 27.357V28.5C30.75 29.8807 29.6307 31 28.25 31H26.375C19.1263 31 13.25 25.1237 13.25 17.875V16Z" fill="#262626"/>
</svg>
