<svg width="54" height="55" viewBox="0 0 54 55" fill="none" xmlns="http://www.w3.org/2000/svg">
<rect x="0.5" y="1" width="53" height="53" rx="5.5" fill="white"/>
<rect x="0.5" y="1" width="53" height="53" rx="5.5" stroke="#F1F1F3"/>
<path fill-rule="evenodd" clip-rule="evenodd" d="M19.5 27.5C19.5 26.8787 20.0037 26.375 20.625 26.375H30.5819L27.3453 23.4359C26.8974 23.0053 26.8834 22.2931 27.3141 21.8453C27.7447 21.3974 28.4569 21.3834 28.9047 21.8141L34.1547 26.6891C34.3753 26.9012 34.5 27.194 34.5 27.5C34.5 27.806 34.3753 28.0988 34.1547 28.3109L28.9047 33.1859C28.4569 33.6166 27.7447 33.6026 27.3141 33.1547C26.8834 32.7069 26.8974 31.9947 27.3453 31.5641L30.5819 28.625H20.625C20.0037 28.625 19.5 28.1213 19.5 27.5Z" fill="#262626"/>
</svg>
